<svg enable-background="new 0 0 100 17.8" viewBox="0 0 100 17.8" xmlns="http://www.w3.org/2000/svg"><g fill="#fff"><path d="m55.5 5.3h2v1.3c.6-.8 1.3-1.5 2.6-1.5 1.2 0 2.1.6 2.6 1.5.7-.9 1.6-1.5 2.9-1.5 1.9 0 3 1.2 3 3.3v5.5h-2v-4.9c0-1.4-.6-2.1-1.7-2.1-1.2 0-1.9.8-1.9 2.1v4.8h-2v-4.8c0-1.3-.6-2.1-1.7-2.1s-1.8.8-1.8 2.1v4.8h-2z"/><path d="m70.5 10.7v-5.4h2v4.9c0 1.3.7 2.1 1.8 2.1s1.9-.8 1.9-2.1v-4.9h2v8.6h-2v-1.3c-.6.8-1.3 1.5-2.7 1.5-1.9-.1-3-1.4-3-3.4z"/><path d="m79.6 12.7.9-1.3c.9.7 1.9 1.1 2.8 1.1.8 0 1.3-.4 1.3-.9 0-.7-.9-.9-1.9-1.2-1.3-.4-2.7-1-2.7-2.6 0-1.6 1.3-2.6 3-2.6 1.1 0 2.2.4 3.1 1l-.8 1.4c-.7-.6-1.6-.9-2.3-.9-.8 0-1.2.4-1.2.8 0 .6.9.9 1.9 1.2 1.2.4 2.7 1 2.7 2.5 0 1.8-1.4 2.7-3.2 2.7-1.2.1-2.6-.3-3.6-1.2z"/><path d="m88.1 2.1h2.1v1.9h-2.1zm.1 3.2h2v8.6h-2z"/><path d="m91.9 9.6c0-2.5 1.9-4.5 4.5-4.5 1.6 0 2.6.6 3.4 1.5l-1.2 1.3c-.6-.6-1.2-1.1-2.2-1.1-1.4 0-2.5 1.2-2.5 2.7 0 1.5 1.1 2.7 2.6 2.7.9 0 1.6-.4 2.2-1.1l1.2 1.2c-.8.9-1.8 1.6-3.5 1.6-2.6.2-4.5-1.8-4.5-4.3z"/></g><path d="m1.1 1.2h16.2v15.5h-16.2z" fill="#d62227"/><path d="m17.3 1.2h16.5v15.5h-16.5z" fill="#040407"/><path d="m33.8 1.2h16v15.5h-16z" fill="#257bbc"/><path d="m10.8 13.2v-4.8c0-.7-.1-1.2-.4-1.6-.3-.3-.7-.5-1.4-.5-.3 0-.6.1-.9.2-.3.2-.6.4-.8.6v6.1h-2v-8.4h1.4l.4.8c.5-.6 1.3-.9 2.4-.9 1 0 1.8.3 2.4.9s.9 1.4.9 2.5v5.2h-2z" fill="#fff"/><path d="m25.4 13.4c1.3 0 2.3-.4 3.1-1.1.7-.7 1.1-1.8 1.1-3.2 0-3-1.3-4.5-4-4.5-.7 0-1.3.2-1.8.7v-.5h-2v10.7h2v-2.5c.4.3 1 .4 1.6.4m-.5-7.1c.9 0 1.6.2 2 .6s.6 1.1.6 2.1c0 .9-.2 1.6-.6 2.1-.4.4-1 .7-2 .7-.5 0-.9-.1-1.3-.4v-4.5c.5-.4.9-.6 1.3-.6" fill="#fff"/><path d="m44.2 6.6c-.4-.2-.7-.3-1.2-.3s-.9.2-1.2.6c-.4.4-.5.9-.5 1.5v4.8h-2v-8.4h2v.8c.5-.6 1.3-.9 2.2-.9.7 0 1.2.1 1.5.3z" fill="#fff"/><path d="m.1 17.7h50.7v-17.6h-50.7zm1-16.5h48.6v15.5h-48.6z" fill="#fff"/></svg>