<?xml version="1.0" encoding="UTF-8"?>
<svg width="132px" height="46px" viewBox="0 0 132 46" version="1.1" xmlns="http://www.w3.org/2000/svg" xmlns:xlink="http://www.w3.org/1999/xlink">
    <!-- Generator: Sketch 41.2 (35397) - http://www.bohemiancoding.com/sketch -->
    <title>npr_logo</title>
    <desc>Created with Sketch.</desc>
    <defs></defs>
    <g id="Page-1" stroke="none" stroke-width="1" fill="none" fill-rule="evenodd">
        <g id="npr_logo" fill="#989898">
            <g id="Group">
                <polygon id="Shape" points="44.556 44.565 45.227 44.565 45.227 0.801 0.788 0.801 0.788 45.237 45.227 45.237 45.227 44.565 44.556 44.565 44.556 43.894 2.132 43.894 2.132 2.145 43.884 2.145 43.884 44.565 44.556 44.565 44.556 43.894"></polygon>
                <polygon id="Shape" points="87.648 44.565 88.32 44.565 88.32 0.801 43.884 0.801 43.884 45.237 88.32 45.237 88.32 44.565 87.648 44.565 87.648 43.894 45.227 43.894 45.227 2.145 86.977 2.145 86.977 44.565 87.648 44.565 87.648 43.894"></polygon>
                <polygon id="Shape" points="130.654 44.565 131.326 44.565 131.326 0.801 86.889 0.801 86.889 45.237 131.326 45.237 131.326 44.565 130.654 44.565 130.654 43.894 88.232 43.894 88.232 2.145 129.982 2.145 129.982 44.565 130.654 44.565 130.654 43.894"></polygon>
                <path d="M27.194,34.011 L27.194,21.296 C27.194,19.418 26.833,18.05 26.11,17.185 C25.389,16.324 24.209,15.891 22.571,15.891 C21.815,15.891 21.006,16.104 20.147,16.529 C19.288,16.951 18.616,17.482 18.133,18.108 L18.133,34.01 L12.983,34.01 L12.983,11.92 L16.696,11.92 L17.645,13.98 C19.047,12.357 21.115,11.546 23.851,11.546 C26.473,11.546 28.548,12.331 30.066,13.907 C31.584,15.475 32.346,17.671 32.346,20.481 L32.346,34.009 L27.194,34.009 L27.194,34.011 Z" id="Shape"></path>
                <path d="M64.549,15.952 C66.918,15.952 68.619,16.485 69.647,17.548 C70.672,18.61 71.186,20.443 71.186,23.05 C71.186,25.488 70.668,27.275 69.636,28.406 C68.6,29.535 66.897,30.102 64.528,30.102 C63.281,30.102 62.19,29.725 61.26,28.97 L61.26,17.393 C62.217,16.436 63.314,15.952 64.549,15.952 Z M65.694,34.446 C69.063,34.446 71.719,33.47 73.668,31.518 C75.613,29.57 76.584,26.783 76.584,23.173 C76.584,15.424 73.066,11.547 66.025,11.547 C64.14,11.547 62.551,12.168 61.26,13.403 L61.26,11.921 L56.107,11.921 L56.107,42.637 L61.26,42.637 L61.26,33.476 C62.594,34.12 64.07,34.446 65.694,34.446 Z" id="Shape"></path>
                <path d="M114.898,16.761 C113.98,16.181 112.976,15.892 111.88,15.892 C110.692,15.892 109.636,16.433 108.712,17.516 C107.788,18.599 107.329,19.919 107.329,21.48 L107.329,34.011 L102.177,34.011 L102.177,11.921 L107.329,11.921 L107.329,14.031 C108.765,12.374 110.671,11.547 113.052,11.547 C114.8,11.547 116.142,11.815 117.072,12.351 L114.898,16.761 Z" id="Shape"></path>
            </g>
        </g>
    </g>
</svg>