<?xml version="1.0" encoding="utf-8"?>
<!-- Generator: Adobe Illustrator 18.0.0, SVG Export Plug-In . SVG Version: 6.00 Build 0)  -->
<!DOCTYPE svg PUBLIC "-//W3C//DTD SVG 1.1//EN" "http://www.w3.org/Graphics/SVG/1.1/DTD/svg11.dtd">
<svg version="1.1" xmlns="http://www.w3.org/2000/svg" xmlns:xlink="http://www.w3.org/1999/xlink" x="0px" y="0px"
	 viewBox="0 0 56 49" style="enable-background:new 0 0 56 49;" xml:space="preserve">
<style type="text/css">
	.st0{fill:#EF3D23;}
</style>
<g id="Layer_1">
</g>
<g id="Base">
	<path class="st0" d="M54.2,40.2c-1,0-1.8-0.8-1.8-1.8V28c0-13.5-11-24.5-24.5-24.5S3.5,14.5,3.5,28v10.5c0,1-0.8,1.8-1.8,1.8
		S0,39.5,0,38.5V28C0,12.6,12.6,0,28,0s28,12.6,28,28v10.5C56,39.5,55.2,40.2,54.2,40.2z M14,47.2V29.8c0-1-0.8-1.8-1.8-1.8H8.8
		c-1,0-1.8,0.8-1.8,1.8v17.5c0,1,0.8,1.8,1.8,1.8h3.5C13.2,49,14,48.2,14,47.2z M49,47.2V29.8c0-1-0.8-1.8-1.8-1.8h-3.5
		c-1,0-1.8,0.8-1.8,1.8v17.5c0,1,0.8,1.8,1.8,1.8h3.5C48.2,49,49,48.2,49,47.2z"/>
</g>
</svg>
